<svg width="17" height="17" viewBox="0 0 17 17" fill="none" xmlns="http://www.w3.org/2000/svg">
<path d="M8.59905 9.82003C9.27433 9.82003 9.82175 9.2732 9.82175 8.59864C9.82175 7.92409 9.27433 7.37726 8.59905 7.37726C7.92377 7.37726 7.37634 7.92409 7.37634 8.59864C7.37634 9.2732 7.92377 9.82003 8.59905 9.82003Z" fill="#D9E1FA"/>
<path d="M14.3763 9.82003C15.0515 9.82003 15.599 9.2732 15.599 8.59864C15.599 7.92409 15.0515 7.37726 14.3763 7.37726C13.701 7.37726 13.1536 7.92409 13.1536 8.59864C13.1536 9.2732 13.701 9.82003 14.3763 9.82003Z" fill="#D9E1FA"/>
<path d="M2.8217 9.82003C3.49698 9.82003 4.04441 9.2732 4.04441 8.59864C4.04441 7.92409 3.49698 7.37726 2.8217 7.37726C2.14642 7.37726 1.599 7.92409 1.599 8.59864C1.599 9.2732 2.14642 9.82003 2.8217 9.82003Z" fill="#D9E1FA"/>
</svg>
