<svg width="13" height="12" viewBox="0 0 13 12" fill="none" xmlns="http://www.w3.org/2000/svg">
<path fill-rule="evenodd" clip-rule="evenodd" d="M12.5803 6C12.5803 9.31371 9.89403 12 6.58032 12C3.26661 12 0.580322 9.31371 0.580322 6C0.580322 2.68629 3.26661 0 6.58032 0C9.89403 0 12.5803 2.68629 12.5803 6ZM6.58187 2.57132C6.90493 2.57132 7.16683 2.83322 7.16683 3.15629V5.41563H9.42309C9.74616 5.41563 10.0081 5.67753 10.0081 6.0006C10.0081 6.32367 9.74616 6.58557 9.42309 6.58557H7.16683V8.8435C7.16683 9.16657 6.90493 9.42847 6.58187 9.42847C6.2588 9.42847 5.9969 9.16657 5.9969 8.8435V6.58557H3.73588C3.41281 6.58557 3.15091 6.32367 3.15091 6.0006C3.15091 5.67753 3.41281 5.41563 3.73588 5.41563H5.9969V3.15629C5.9969 2.83322 6.2588 2.57132 6.58187 2.57132Z" fill="#AEB9E1"/>
</svg>
