<svg width="13" height="12" viewBox="0 0 13 12" fill="none" xmlns="http://www.w3.org/2000/svg">
<path d="M6.94067 7.5C4.73067 7.5 2.94067 8.395 2.94067 9.5V10.5H10.9407V9.5C10.9407 8.395 9.15067 7.5 6.94067 7.5ZM4.94067 4.5C4.94067 5.03043 5.15139 5.53914 5.52646 5.91421C5.90153 6.28929 6.41024 6.5 6.94067 6.5C7.47111 6.5 7.97981 6.28929 8.35489 5.91421C8.72996 5.53914 8.94067 5.03043 8.94067 4.5M6.69067 1C6.54067 1 6.44067 1.105 6.44067 1.25V2.75H5.94067V1.5C5.94067 1.5 4.81567 1.93 4.81567 3.375C4.81567 3.375 4.44067 3.445 4.44067 4H9.44067C9.41567 3.445 9.06567 3.375 9.06567 3.375C9.06567 1.93 7.94067 1.5 7.94067 1.5V2.75H7.44067V1.25C7.44067 1.105 7.34567 1 7.19067 1H6.69067Z" fill="#AEB9E1"/>
</svg>
