<svg width="17" height="15" viewBox="0 0 17 15" fill="none" xmlns="http://www.w3.org/2000/svg">
<path d="M13.6923 1H3.30769C2.69565 1 2.10868 1.24313 1.67591 1.67591C1.24313 2.10868 1 2.69565 1 3.30769V9.07692C1 9.68896 1.24313 10.2759 1.67591 10.7087C2.10868 11.1415 2.69565 11.3846 3.30769 11.3846H9.65385L13.1154 13.6923V11.3846H13.6923C14.3043 11.3846 14.8913 11.1415 15.3241 10.7087C15.7569 10.2759 16 9.68896 16 9.07692V3.30769C16 2.69565 15.7569 2.10868 15.3241 1.67591C14.8913 1.24313 14.3043 1 13.6923 1Z" stroke="white" stroke-opacity="0.6" stroke-linecap="round" stroke-linejoin="round"/>
<path d="M5.03848 6.76922C5.03848 6.92223 4.9777 7.06897 4.86951 7.17717C4.76131 7.28536 4.61457 7.34615 4.46156 7.34615C4.30855 7.34615 4.16181 7.28536 4.05361 7.17717C3.94542 7.06897 3.88464 6.92223 3.88464 6.76922C3.88464 6.61621 3.94542 6.46947 4.05361 6.36128C4.16181 6.25308 4.30855 6.1923 4.46156 6.1923C4.61457 6.1923 4.76131 6.25308 4.86951 6.36128C4.9777 6.46947 5.03848 6.61621 5.03848 6.76922ZM8.50002 6.76922C8.50002 6.92223 8.43924 7.06897 8.33104 7.17717C8.22285 7.28536 8.07611 7.34615 7.9231 7.34615C7.77009 7.34615 7.62335 7.28536 7.51515 7.17717C7.40696 7.06897 7.34617 6.92223 7.34617 6.76922C7.34617 6.61621 7.40696 6.46947 7.51515 6.36128C7.62335 6.25308 7.77009 6.1923 7.9231 6.1923C8.07611 6.1923 8.22285 6.25308 8.33104 6.36128C8.43924 6.46947 8.50002 6.61621 8.50002 6.76922ZM11.9616 6.76922C11.9616 6.92223 11.9008 7.06897 11.7926 7.17717C11.6844 7.28536 11.5376 7.34615 11.3846 7.34615C11.2316 7.34615 11.0849 7.28536 10.9767 7.17717C10.8685 7.06897 10.8077 6.92223 10.8077 6.76922C10.8077 6.61621 10.8685 6.46947 10.9767 6.36128C11.0849 6.25308 11.2316 6.1923 11.3846 6.1923C11.5376 6.1923 11.6844 6.25308 11.7926 6.36128C11.9008 6.46947 11.9616 6.61621 11.9616 6.76922Z" stroke="white" stroke-opacity="0.6" stroke-linecap="round" stroke-linejoin="round"/>
</svg>
