<svg width="16" height="16" viewBox="0 0 16 16" fill="none" xmlns="http://www.w3.org/2000/svg">
<g opacity="0.6">
<path d="M5.99998 1.33334H2.66665C1.93027 1.33334 1.33331 1.9303 1.33331 2.66668V7.33334C1.33331 8.06972 1.93027 8.66668 2.66665 8.66668H5.99998C6.73636 8.66668 7.33331 8.06972 7.33331 7.33334V2.66668C7.33331 1.9303 6.73636 1.33334 5.99998 1.33334Z" fill="#F5F5F5"/>
<path d="M13.3334 1.33334H10C9.26364 1.33334 8.66669 1.9303 8.66669 2.66668V4.66668C8.66669 5.40306 9.26364 6.00001 10 6.00001H13.3334C14.0697 6.00001 14.6667 5.40306 14.6667 4.66668V2.66668C14.6667 1.9303 14.0697 1.33334 13.3334 1.33334Z" fill="#F5F5F5"/>
<path d="M5.99998 10H2.66665C1.93027 10 1.33331 10.597 1.33331 11.3333V13.3333C1.33331 14.0697 1.93027 14.6667 2.66665 14.6667H5.99998C6.73636 14.6667 7.33331 14.0697 7.33331 13.3333V11.3333C7.33331 10.597 6.73636 10 5.99998 10Z" fill="#F5F5F5"/>
<path d="M13.3334 7.33334H10C9.26364 7.33334 8.66669 7.9303 8.66669 8.66668V13.3333C8.66669 14.0697 9.26364 14.6667 10 14.6667H13.3334C14.0697 14.6667 14.6667 14.0697 14.6667 13.3333V8.66668C14.6667 7.9303 14.0697 7.33334 13.3334 7.33334Z" fill="#F5F5F5"/>
</g>
</svg>
