<svg width="16" height="16" viewBox="0 0 16 16" fill="none" xmlns="http://www.w3.org/2000/svg">
<path d="M5.99992 1.33333H2.66659C1.93021 1.33333 1.33325 1.93028 1.33325 2.66666V7.33333C1.33325 8.06971 1.93021 8.66666 2.66659 8.66666H5.99992C6.7363 8.66666 7.33325 8.06971 7.33325 7.33333V2.66666C7.33325 1.93028 6.7363 1.33333 5.99992 1.33333Z" fill="#F5F5F5"/>
<path d="M13.3334 1.33333H10.0001C9.2637 1.33333 8.66675 1.93028 8.66675 2.66666V4.66666C8.66675 5.40304 9.2637 5.99999 10.0001 5.99999H13.3334C14.0698 5.99999 14.6667 5.40304 14.6667 4.66666V2.66666C14.6667 1.93028 14.0698 1.33333 13.3334 1.33333Z" fill="#F5F5F5"/>
<path d="M5.99992 10H2.66659C1.93021 10 1.33325 10.597 1.33325 11.3333V13.3333C1.33325 14.0697 1.93021 14.6667 2.66659 14.6667H5.99992C6.7363 14.6667 7.33325 14.0697 7.33325 13.3333V11.3333C7.33325 10.597 6.7363 10 5.99992 10Z" fill="#F5F5F5"/>
<path d="M13.3334 7.33333H10.0001C9.2637 7.33333 8.66675 7.93028 8.66675 8.66666V13.3333C8.66675 14.0697 9.2637 14.6667 10.0001 14.6667H13.3334C14.0698 14.6667 14.6667 14.0697 14.6667 13.3333V8.66666C14.6667 7.93028 14.0698 7.33333 13.3334 7.33333Z" fill="#F5F5F5"/>
</svg>
