<svg width="16" height="16" viewBox="0 0 16 16" fill="none" xmlns="http://www.w3.org/2000/svg">
<g clip-path="url(#clip0_87_48996)">
<path d="M2.42528 14H4.07469C4.30956 14 4.49997 13.8096 4.49997 13.5747V9.84668C4.49997 9.61181 4.30953 9.4214 4.07469 9.4214H2.42528C2.19041 9.4214 2 9.61184 2 9.84668V13.5747C2 13.8096 2.19044 14 2.42528 14Z" fill="white" fill-opacity="0.6"/>
<path d="M6.17528 14H7.82469C8.05956 14 8.24997 13.8096 8.24997 13.5747V7.34668C8.24997 7.11181 8.05953 6.9214 7.82469 6.9214H6.17528C5.94041 6.9214 5.75 7.11184 5.75 7.34668V13.5747C5.75 13.8096 5.94044 14 6.17528 14Z" fill="white" fill-opacity="0.6"/>
<path d="M9.92528 14H11.5747C11.8096 14 12 13.8096 12 13.5747V4.34668C12 4.11181 11.8095 3.9214 11.5747 3.9214H9.92528C9.69041 3.9214 9.5 4.11184 9.5 4.34668V13.5747C9.5 13.8096 9.69044 14 9.92528 14Z" fill="white" fill-opacity="0.6"/>
<path d="M13.6753 14H15.3247C15.5596 14 15.75 13.8096 15.75 13.5747V1.34668C15.75 1.11181 15.5595 0.921402 15.3247 0.921402H13.6753C13.4404 0.921402 13.25 1.11184 13.25 1.34668V13.5747C13.25 13.8096 13.4404 14 13.6753 14Z" fill="white" fill-opacity="0.6"/>
<path d="M15.5747 15.0625H1.42528C1.19044 15.0625 1 14.8721 1 14.6372V0.425281C1 0.190438 0.809563 0 0.574719 0H0.425312C0.190437 0 0 0.190438 0 0.425281V15.5747C0 15.8096 0.190438 16 0.425281 16H15.5747C15.8096 16 16 15.8096 16 15.5747V15.4878C16 15.2529 15.8096 15.0625 15.5747 15.0625Z" fill="white" fill-opacity="0.6"/>
</g>
<defs>
<clipPath id="clip0_87_48996">
<rect width="16" height="16" fill="white"/>
</clipPath>
</defs>
</svg>
