<svg width="16" height="16" viewBox="0 0 16 16" fill="none" xmlns="http://www.w3.org/2000/svg">
<path fill-rule="evenodd" clip-rule="evenodd" d="M9.5192 1.43483C9.27233 1.33333 8.95933 1.33333 8.33333 1.33333C7.70733 1.33333 7.39433 1.33333 7.14746 1.43483C6.81826 1.57015 6.55672 1.82972 6.42037 2.15642C6.35812 2.30556 6.33377 2.479 6.32423 2.73199C6.31023 3.10379 6.1181 3.44793 5.79345 3.63395C5.46879 3.81997 5.07242 3.81302 4.74099 3.63917C4.51545 3.52087 4.35193 3.45508 4.19066 3.43401C3.83739 3.38785 3.48012 3.48286 3.19744 3.69813C2.98543 3.85959 2.82893 4.1286 2.51593 4.66662C2.20294 5.20465 2.04645 5.47365 2.01157 5.73661C1.96505 6.0872 2.06079 6.44177 2.2777 6.72233C2.37671 6.8504 2.51585 6.958 2.7318 7.09267C3.04927 7.29067 3.25355 7.62793 3.25353 8C3.25351 8.37207 3.04924 8.70926 2.7318 8.9072C2.51581 9.04193 2.37665 9.1496 2.27763 9.27767C2.06072 9.5582 1.96499 9.91273 2.0115 10.2633C2.04638 10.5263 2.20288 10.7953 2.51587 11.3333C2.82886 11.8713 2.98536 12.1404 3.19737 12.3018C3.48005 12.5171 3.83733 12.6121 4.19059 12.5659C4.35185 12.5449 4.51536 12.4791 4.74089 12.3608C5.07235 12.1869 5.46873 12.18 5.79341 12.366C6.11809 12.5521 6.31022 12.8962 6.32423 13.2681C6.33377 13.521 6.35812 13.6945 6.42037 13.8436C6.55672 14.1703 6.81826 14.4299 7.14746 14.5652C7.39433 14.6667 7.70733 14.6667 8.33333 14.6667C8.95933 14.6667 9.27233 14.6667 9.5192 14.5652C9.8484 14.4299 10.1099 14.1703 10.2463 13.8436C10.3085 13.6945 10.3329 13.521 10.3425 13.268C10.3565 12.8962 10.5485 12.5521 10.8732 12.366C11.1979 12.1799 11.5943 12.1869 11.9257 12.3608C12.1513 12.4791 12.3147 12.5448 12.476 12.5659C12.8293 12.6121 13.1865 12.5171 13.4692 12.3018C13.6813 12.1403 13.8377 11.8713 14.1507 11.3333C14.4637 10.7953 14.6202 10.5263 14.6551 10.2633C14.7016 9.91273 14.6059 9.55813 14.389 9.2776C14.2899 9.14953 14.1508 9.04186 13.9348 8.9072C13.6174 8.70926 13.4131 8.372 13.4131 7.99993C13.4131 7.62786 13.6174 7.29073 13.9348 7.0928C14.1509 6.95807 14.29 6.85046 14.3891 6.72233C14.6059 6.44182 14.7017 6.08724 14.6552 5.73665C14.6203 5.4737 14.4638 5.20469 14.1508 4.66667C13.8378 4.12865 13.6813 3.85963 13.4693 3.69818C13.1866 3.48291 12.8293 3.3879 12.4761 3.43406C12.3148 3.45513 12.1513 3.52091 11.9258 3.6392C11.5943 3.81306 11.1979 3.82001 10.8733 3.63397C10.5486 3.44794 10.3565 3.10377 10.3424 2.73196C10.3329 2.47899 10.3085 2.30555 10.2463 2.15642C10.1099 1.82972 9.8484 1.57015 9.5192 1.43483ZM8.33333 10C9.44633 10 10.3485 9.1046 10.3485 8C10.3485 6.8954 9.44633 6 8.33333 6C7.22033 6 6.31811 6.8954 6.31811 8C6.31811 9.1046 7.22033 10 8.33333 10Z" fill="white" fill-opacity="0.6"/>
</svg>
