<svg width="16" height="16" viewBox="0 0 16 16" fill="none" xmlns="http://www.w3.org/2000/svg">
<g clip-path="url(#clip0_87_49016)">
<path d="M15.5455 6.67328C15.5452 6.65969 15.5446 6.64616 15.5435 6.63278C15.5427 6.62372 15.5417 6.61466 15.5406 6.60562C15.5391 6.59413 15.5374 6.58278 15.5354 6.57153C15.5333 6.56037 15.531 6.54925 15.5283 6.53816C15.5262 6.52916 15.5239 6.52019 15.5215 6.51128C15.5178 6.49847 15.5137 6.48572 15.5093 6.473C15.5077 6.46859 15.5067 6.46422 15.505 6.45981L14.3763 3.44972H13.6855H12.9214H3.0787H2.31458H1.62373L0.494953 6.45978C0.493328 6.46419 0.492265 6.46856 0.490734 6.47297C0.486265 6.48569 0.482203 6.49847 0.478578 6.51125C0.476046 6.52012 0.473796 6.52909 0.471671 6.53812C0.468984 6.54925 0.466671 6.56037 0.46464 6.5715C0.462609 6.58275 0.460859 6.59409 0.459421 6.60559C0.458296 6.61466 0.457265 6.62372 0.456546 6.63275C0.455421 6.64616 0.454765 6.65966 0.454484 6.67325C0.45439 6.67778 0.453796 6.68225 0.453796 6.68687V9.27416C0.453796 9.63134 0.74339 9.92097 1.10061 9.92097H1.74742V12.7659V15.3532C1.74742 15.7104 2.03702 16 2.39423 16H8.86242H13.6058C13.963 16 14.2526 15.7103 14.2526 15.3532V9.921H14.8994C15.2566 9.921 15.5462 9.63134 15.5462 9.27419V6.68691C15.5462 6.68228 15.5456 6.67784 15.5455 6.67328ZM3.04105 9.921H8.21558V12.1191H3.04105V9.921ZM8.21558 14.7064H3.04105V13.4128H8.21561V14.7064H8.21558ZM12.9589 14.7064H9.50923V12.7659V9.92097H12.9589V14.7064Z" fill="white" fill-opacity="0.6"/>
<path d="M12.3121 0H3.68789C3.33067 0 3.04108 0.289594 3.04108 0.646812V2.15606H3.68789H4.3347H11.6653H12.3121H12.959V0.646812C12.959 0.289594 12.6694 0 12.3121 0Z" fill="white" fill-opacity="0.6"/>
</g>
<defs>
<clipPath id="clip0_87_49016">
<rect width="16" height="16" fill="white"/>
</clipPath>
</defs>
</svg>
