<svg width="14" height="16" viewBox="0 0 14 16" fill="none" xmlns="http://www.w3.org/2000/svg">
<path d="M6.99998 10.4912C3.31665 10.4912 0.333313 11.9358 0.333313 13.7193V15.3333H13.6666V13.7193C13.6666 11.9358 10.6833 10.4912 6.99998 10.4912ZM3.66665 5.64912C3.66665 6.50526 4.01784 7.32633 4.64296 7.93171C5.26808 8.53709 6.11592 8.87719 6.99998 8.87719C7.88403 8.87719 8.73188 8.53709 9.357 7.93171C9.98212 7.32633 10.3333 6.50526 10.3333 5.64912M6.58331 0C6.33331 0 6.16665 0.169474 6.16665 0.403509V2.82456H5.33331V0.807018C5.33331 0.807018 3.45831 1.50105 3.45831 3.83333C3.45831 3.83333 2.83331 3.94632 2.83331 4.8421H11.1666C11.125 3.94632 10.5416 3.83333 10.5416 3.83333C10.5416 1.50105 8.66665 0.807018 8.66665 0.807018V2.82456H7.83331V0.403509C7.83331 0.169474 7.67498 0 7.41665 0H6.58331Z" fill="white" fill-opacity="0.6"/>
</svg>
