<svg width="1440" height="1024" viewBox="0 0 1440 1024" fill="none" xmlns="http://www.w3.org/2000/svg">
<g clip-path="url(#clip0_0_4327)">
<rect width="1440" height="1024" rx="24" fill="#F8F9FB"/>
<path d="M646 1023.85C1276.8 1009.03 1422.57 636.445 1439.76 441L1439.76 999.849C1439.76 1013.1 1429.01 1023.85 1415.76 1023.85L646 1023.85Z" fill="#466BAD"/>
<path d="M868.809 1023.85C1322.54 1013.68 1427.39 757.938 1439.76 623.787L1439.76 999.849C1439.76 1013.1 1429.01 1023.85 1415.76 1023.85L868.809 1023.85Z" fill="#3D609E"/>
<path d="M1113.47 1023.69C1372.63 1017.63 1432.79 859.017 1440 775.793L1439.61 1000C1439.59 1013.25 1428.82 1023.99 1415.57 1023.98L1113.47 1023.69Z" fill="#294880"/>
<path d="M409.483 -1.26185e-05C84.0658 12.7121 8.86606 332.337 -0.000244141 500L-0.000223334 24C-0.000222755 10.7451 10.745 -3.00479e-05 23.9998 -2.94685e-05L409.483 -1.26185e-05Z" fill="#F3AF6A"/>
<path d="M294.54 0.000134945C60.4683 8.6575 6.37727 226.333 -0.000244141 340.517L-0.000230305 24.0001C-0.000229726 10.7453 10.745 0.00012254 23.9998 0.000123119L294.54 0.000134945Z" fill="#EE9D4F"/>
<path d="M168.492 0.304036C34.794 5.39121 3.73086 137.553 -0.000244141 206.896L0.233218 24.0892C0.250146 10.8343 11.009 0.102915 24.2639 0.119843L168.492 0.304036Z" fill="#DE873A"/>
</g>
<defs>
<clipPath id="clip0_0_4327">
<rect width="1440" height="1024" rx="24" fill="white"/>
</clipPath>
</defs>
</svg>
