<svg width="1365" height="654" viewBox="0 0 1365 654" fill="none" xmlns="http://www.w3.org/2000/svg">
<g clip-path="url(#clip0_1_758)">
<rect width="1365" height="654" rx="24" fill="#F8F9FB"/>
<path d="M810 642.883C1250.92 631.42 1352.82 343.193 1364.83 192L1364.83 618.883C1364.83 632.138 1354.09 642.883 1340.83 642.883L810 642.883Z" fill="#466BAD"/>
<path d="M965.742 642.883C1282.9 635.015 1356.19 437.179 1364.83 333.401L1364.83 618.883C1364.83 632.138 1354.08 642.883 1340.83 642.883L965.742 642.883Z" fill="#3D609E"/>
<path d="M1136.76 642.764C1317.91 638.07 1359.96 515.371 1365 450.991L1364.74 619C1364.72 632.255 1353.95 642.989 1340.7 642.975L1136.76 642.764Z" fill="#294880"/>
<path d="M482 8.80528e-08C98.9537 11.7714 10.4365 307.744 0 463L1.91893e-05 24C1.97687e-05 10.7451 10.7452 -2.05111e-05 24 -1.99318e-05L482 8.80528e-08Z" fill="#F3AF6A"/>
<path d="M346.702 -1.03975e-07C71.1772 8.01674 7.50694 209.584 0 315.319L1.2734e-05 24C1.33133e-05 10.7452 10.7452 -1.47891e-05 24 -1.42097e-05L346.702 -1.03975e-07Z" fill="#EE9D4F"/>
<path d="M198.331 0.281565C40.9561 4.99229 4.39187 127.374 0 191.586L0.271922 24.0826C0.29344 10.8278 11.056 0.0934135 24.3109 0.10673L198.331 0.281565Z" fill="#DE873A"/>
</g>
<defs>
<clipPath id="clip0_1_758">
<rect width="1365" height="654" rx="24" fill="white"/>
</clipPath>
</defs>
</svg>
