<svg width="18" height="20" viewBox="0 0 18 20" fill="none" xmlns="http://www.w3.org/2000/svg">
<path d="M1.5 4.1665C1.03976 4.1665 0.666667 4.5396 0.666667 4.99984C0.666667 5.46007 1.03976 5.83317 1.5 5.83317V4.1665ZM16.5 5.83317C16.9602 5.83317 17.3333 5.46007 17.3333 4.99984C17.3333 4.5396 16.9602 4.1665 16.5 4.1665V5.83317ZM14.8333 4.99984H15.6667C15.6667 4.5396 15.2936 4.1665 14.8333 4.1665V4.99984ZM3.16667 16.6665H2.33333H3.16667ZM4.83333 4.99984C4.83333 5.46007 5.20643 5.83317 5.66667 5.83317C6.1269 5.83317 6.5 5.46007 6.5 4.99984H4.83333ZM7.33333 1.6665V0.833171V1.6665ZM10.6667 1.6665V0.833171V1.6665ZM11.5 4.99984C11.5 5.46007 11.8731 5.83317 12.3333 5.83317C12.7936 5.83317 13.1667 5.46007 13.1667 4.99984H11.5ZM8.16667 9.1665C8.16667 8.70627 7.79357 8.33317 7.33333 8.33317C6.8731 8.33317 6.5 8.70627 6.5 9.1665H8.16667ZM6.5 14.1665C6.5 14.6267 6.8731 14.9998 7.33333 14.9998C7.79357 14.9998 8.16667 14.6267 8.16667 14.1665H6.5ZM11.5 9.1665C11.5 8.70627 11.1269 8.33317 10.6667 8.33317C10.2064 8.33317 9.83333 8.70627 9.83333 9.1665H11.5ZM9.83333 14.1665C9.83333 14.6267 10.2064 14.9998 10.6667 14.9998C11.1269 14.9998 11.5 14.6267 11.5 14.1665H9.83333ZM1.5 5.83317H3.16667V4.1665H1.5V5.83317ZM3.16667 5.83317H16.5V4.1665H3.16667V5.83317ZM14 4.99984V16.6665H15.6667V4.99984H14ZM14 16.6665C14 16.8875 13.9122 17.0995 13.7559 17.2558L14.9344 18.4343C15.4033 17.9654 15.6667 17.3295 15.6667 16.6665H14ZM13.7559 17.2558C13.5996 17.412 13.3877 17.4998 13.1667 17.4998V19.1665C13.8297 19.1665 14.4656 18.9031 14.9344 18.4343L13.7559 17.2558ZM13.1667 17.4998H4.83333V19.1665H13.1667V17.4998ZM4.83333 17.4998C4.61232 17.4998 4.40036 17.412 4.24408 17.2558L3.06557 18.4343C3.53441 18.9031 4.17029 19.1665 4.83333 19.1665V17.4998ZM4.24408 17.2558C4.0878 17.0995 4 16.8875 4 16.6665H2.33333C2.33333 17.3295 2.59673 17.9654 3.06557 18.4343L4.24408 17.2558ZM4 16.6665V4.99984H2.33333V16.6665H4ZM3.16667 5.83317H14.8333V4.1665H3.16667V5.83317ZM6.5 4.99984V3.33317H4.83333V4.99984H6.5ZM6.5 3.33317C6.5 3.11216 6.5878 2.9002 6.74408 2.74391L5.56557 1.5654C5.09673 2.03424 4.83333 2.67013 4.83333 3.33317H6.5ZM6.74408 2.74391C6.90036 2.58763 7.11232 2.49984 7.33333 2.49984V0.833171C6.67029 0.833171 6.03441 1.09656 5.56557 1.5654L6.74408 2.74391ZM7.33333 2.49984H10.6667V0.833171H7.33333V2.49984ZM10.6667 2.49984C10.8877 2.49984 11.0996 2.58763 11.2559 2.74391L12.4344 1.5654C11.9656 1.09656 11.3297 0.833171 10.6667 0.833171V2.49984ZM11.2559 2.74391C11.4122 2.9002 11.5 3.11216 11.5 3.33317H13.1667C13.1667 2.67013 12.9033 2.03424 12.4344 1.5654L11.2559 2.74391ZM11.5 3.33317V4.99984H13.1667V3.33317H11.5ZM6.5 9.1665V14.1665H8.16667V9.1665H6.5ZM9.83333 9.1665V14.1665H11.5V9.1665H9.83333Z" fill="#667085"/>
</svg>
