<svg width="19" height="9" viewBox="0 0 19 9" fill="none" xmlns="http://www.w3.org/2000/svg">
<path d="M1.12206 0.764344C0.975926 0.530035 1.04741 0.221629 1.28172 0.0754997C1.51603 -0.0706292 1.82444 0.000855237 1.97057 0.235165C5.46788 5.84291 12.9161 5.84322 16.4138 0.235853C16.5599 0.00155519 16.8683 -0.0699056 17.1026 0.0762416C17.3369 0.222389 17.4084 0.530801 17.2622 0.765099C13.373 7.00017 5.01086 6.99982 1.12206 0.764344ZM8.69238 7H9.69238V9H8.69238V7ZM4.722 6.00875L5.64252 6.39948L4.86105 8.24049L3.94055 7.84975L4.722 6.00875ZM1.41422 3.57107L2.12132 4.27818L0.707108 5.69239L0 4.98528L1.41422 3.57107ZM16.2635 4.27818L16.9706 3.57107L18.3848 4.98528L17.6777 5.69239L16.2635 4.27818ZM12.7551 6.38473L13.6822 6.01013L14.4315 7.8645L13.5043 8.2391L12.7551 6.38473Z" fill="black"/>
</svg>
