<svg width="30" height="30" viewBox="0 0 30 30" fill="none" xmlns="http://www.w3.org/2000/svg">
<path fill-rule="evenodd" clip-rule="evenodd" d="M20.3034 18.975C20.67 19.3406 20.67 19.9407 20.3034 20.3063C19.9378 20.6719 19.3434 20.6719 18.9769 20.3063L15.0056 16.3313L11.0062 20.3343C10.6369 20.6999 10.0388 20.6999 9.6694 20.3343C9.30096 19.9593 9.30096 19.3594 9.6694 18.9938L13.6688 14.9906L9.69749 11.025C9.33093 10.6594 9.33093 10.0593 9.69749 9.69372C10.0622 9.32809 10.6566 9.32809 11.0231 9.69372L14.9944 13.6687L19.0237 9.63753C19.3931 9.2719 19.9903 9.2719 20.3597 9.63753C20.7281 10.0125 20.7281 10.6031 20.3597 10.9781L16.3312 15.0094L20.3034 18.975ZM15 0C6.71531 0 0 6.7125 0 15C0 23.2875 6.71531 30 15 30C23.2847 30 30 23.2875 30 15C30 6.7125 23.2847 0 15 0Z" fill="black" fill-opacity="0.5"/>
</svg>
