<svg width="410" height="500" viewBox="0 0 410 500" fill="none" xmlns="http://www.w3.org/2000/svg">
<path d="M409.482 -3.07383e-05C84.0656 12.7121 8.86593 332.337 -0.000366211 500L-0.000345404 24C-0.000344825 10.7451 10.7448 -4.81677e-05 23.9997 -4.75883e-05L409.482 -3.07383e-05Z" fill="#F3AF6A"/>
<path d="M294.54 2.81336e-05C60.4682 8.6574 6.37715 226.333 -0.000366211 340.517L-0.000352376 24C-0.000351796 10.7452 10.7448 1.57285e-05 23.9997 1.63079e-05L294.54 2.81336e-05Z" fill="#EE9D4F"/>
<path d="M168.492 0.304066C34.7939 5.39124 3.73074 137.553 -0.000366211 206.897L0.233096 24.0892C0.250024 10.8344 11.0089 0.102945 24.2637 0.119873L168.492 0.304066Z" fill="#DE873A"/>
</svg>
