<svg width="48" height="48" viewBox="0 0 48 48" fill="none" xmlns="http://www.w3.org/2000/svg">
<rect width="48" height="48" rx="24" fill="white"/>
<path d="M26.9888 31.1252C26.9888 31.9208 26.6727 32.6839 26.1101 33.2465C25.5475 33.8091 24.7844 34.1252 23.9888 34.1252C23.1932 34.1252 22.4301 33.8091 21.8675 33.2465C21.3048 32.6839 20.9888 31.9208 20.9888 31.1252" fill="black"/>
<path d="M17.5697 30.1252C17.0803 30.0213 16.6476 29.7378 16.3569 29.3305C16.0663 28.9232 15.9388 28.4218 15.9998 27.9252L16.9998 19.8152C17.2551 18.1479 18.1039 16.6288 19.39 15.5374C20.6761 14.446 22.3131 13.8558 23.9998 13.8752C25.6865 13.8558 27.3234 14.446 28.6095 15.5374C29.8957 16.6288 30.7445 18.1479 30.9998 19.8152L31.9998 27.9252C32.0611 28.4204 31.935 28.9206 31.6464 29.3277C31.3578 29.7347 30.9274 30.0192 30.4398 30.1252C26.2074 31.1197 21.8021 31.1197 17.5697 30.1252Z" fill="black"/>
<circle cx="30" cy="16" r="3" fill="#D42D2D"/>
</svg>
