<svg width="20" height="20" viewBox="0 0 20 20" fill="none" xmlns="http://www.w3.org/2000/svg">
<path d="M16.9107 18.0893C17.2362 18.4147 17.7638 18.4147 18.0893 18.0893C18.4147 17.7638 18.4147 17.2362 18.0893 16.9107L16.9107 18.0893ZM14.4643 13.2857C14.1388 12.9603 13.6112 12.9603 13.2857 13.2857C12.9603 13.6112 12.9603 14.1388 13.2857 14.4643L14.4643 13.2857ZM15 9.16667C15 12.3883 12.3883 15 9.16667 15V16.6667C13.3088 16.6667 16.6667 13.3088 16.6667 9.16667H15ZM9.16667 15C5.94501 15 3.33333 12.3883 3.33333 9.16667H1.66667C1.66667 13.3088 5.02453 16.6667 9.16667 16.6667V15ZM3.33333 9.16667C3.33333 5.94501 5.94501 3.33333 9.16667 3.33333V1.66667C5.02453 1.66667 1.66667 5.02453 1.66667 9.16667H3.33333ZM9.16667 3.33333C12.3883 3.33333 15 5.94501 15 9.16667H16.6667C16.6667 5.02453 13.3088 1.66667 9.16667 1.66667V3.33333ZM18.0893 16.9107L14.4643 13.2857L13.2857 14.4643L16.9107 18.0893L18.0893 16.9107Z" fill="#667085"/>
</svg>
